# xmcd
#
# Track frame offsets: 
#        150
#        16418
#        47464
#        64001
#        77343
#        99267
#        121003
#        149537
#        166210
#        188856
#        200617
#
# Disc length: 2930 seconds
#
# Revision: 1
# Processed by: cddbd v1.5.2PL0 Copyright (c) Steve Scherf et al.
# Submitted via: ExactAudioCopy v1.2
#
DISCID=850b700b
DTITLE=Steve Howell and The Mighty Men - Good As I Been To You
DYEAR=2018
DGENRE=Blues
TTITLE0=Bacon Fat (feat. Katy Hobgood Ray)
TTITLE1=When I Was a Cowboy (Out on the Western Plains) (feat. Katy Ho
TTITLE1=bgood Ray)
TTITLE2=New Dirty Dozens (feat. Katy Hobgood Ray)
TTITLE3=It Hurts to Be in Love (feat. Katy Hobgood Ray)
TTITLE4=Come Back Baby
TTITLE5=Blues in the Bottle
TTITLE6=Easy Rider (feat. Katy Hobgood Ray)
TTITLE7=The Sun Ain't Gonna Shine (anymore) (feat. Katy Hobgood Ray)
TTITLE8=Bad Luck Blues
TTITLE9=Lining Track (feat. Katy Hobgood Ray)
TTITLE10=You're Gonna Quit Me Baby
EXTD=
EXTT0=
EXTT1=
EXTT2=
EXTT3=
EXTT4=
EXTT5=
EXTT6=
EXTT7=
EXTT8=
EXTT9=
EXTT10=
PLAYORDER=
